<?xml version="1.0" encoding="UTF-8" standalone="no"?><!DOCTYPE svg PUBLIC "-//W3C//DTD SVG 1.1//EN" "http://www.w3.org/Graphics/SVG/1.1/DTD/svg11.dtd"><svg width="100%" height="100%" viewBox="0 0 1818 504" version="1.1" xmlns="http://www.w3.org/2000/svg" xmlns:xlink="http://www.w3.org/1999/xlink" xml:space="preserve" xmlns:serif="http://www.serif.com/" style="fill-rule:evenodd;clip-rule:evenodd;stroke-linecap:round;stroke-linejoin:round;"><g id="background"><rect id="Rect" x="0.837" y="1.913" width="1817.37" height="501.431" style="fill:#f8ebda;"/></g><g id="lines"><path id="k-stem" d="M69,68l-1,364" style="fill:none;fill-rule:nonzero;stroke:#01423f;stroke-width:16px;"/><path id="k-arm" d="M69,322l141.2,-94.3" style="fill:none;fill-rule:nonzero;stroke:#01423f;stroke-width:16px;"/><path id="k-leg" d="M121.58,287.08c0,0 7.323,-13.552 46.915,8.35c34.849,19.278 144.514,134.664 144.514,134.664" style="fill:none;fill-rule:nonzero;stroke:#01423f;stroke-width:16.49px;"/><path id="k-leaf" d="M210.2,227.7c8.2,-93.8 29.2,-100 105.8,-118.7c-12.2,27.1 16.3,91.9 -105.8,118.7Z" style="fill:#01423f;fill-rule:nonzero;"/><ellipse id="o-ring" cx="527" cy="326" rx="108" ry="115" style="fill:none;stroke:#01423f;stroke-width:16px;"/><path id="z-body" d="M773.5,235.5l223,0c20,0 22.3,6.367 6.9,19.1l-198.9,164.8c-15.4,12.733 -13.1,19.1 6.9,19.1l238.6,0" style="fill:none;fill-rule:nonzero;stroke:#01423f;stroke-width:16px;"/><path id="u-body" d="M1173.8,228.4l0,113.6c0,55.352 45.548,100.9 100.9,100.9c55.352,0 100.9,-45.548 100.9,-100.9l0,-113.6" style="fill:none;fill-rule:nonzero;stroke:#01423f;stroke-width:16px;"/><path id="e-ring" d="M1733,329l0,-0.041c0,-63.636 -54.17,-116 -120,-116c-65.83,0 -120,52.364 -120,116c0,63.635 54.17,116 120,116c24.611,0 48.636,-7.319 68.8,-20.959l16.7,4.9" style="fill:none;fill-rule:nonzero;stroke:#01423f;stroke-width:16px;"/><path id="e-bar" d="M1556.33,329.465l172.458,-0" style="fill:none;fill-rule:nonzero;stroke:#01423f;stroke-width:18.16px;"/><path id="e-leaf" d="M1621,210c24.4,-37.4 28.8,-122.8 151,-94c-44.3,100.6 -90.2,79.5 -138,77" style="fill:#01423f;fill-rule:nonzero;"/></g><g id="dots"><circle cx="69.1" cy="68.3" r="22" style="fill:#fff;stroke:#01423f;stroke-width:12px;stroke-linecap:butt;stroke-linejoin:miter;"/><circle cx="210.2" cy="227.7" r="22" style="fill:#fff;stroke:#01423f;stroke-width:12px;stroke-linecap:butt;stroke-linejoin:miter;"/><circle cx="68.3" cy="432.3" r="22" style="fill:#fff;stroke:#01423f;stroke-width:12px;stroke-linecap:butt;stroke-linejoin:miter;"/><circle cx="302.7" cy="433.6" r="22" style="fill:#fff;stroke:#01423f;stroke-width:12px;stroke-linecap:butt;stroke-linejoin:miter;"/><circle cx="415.9" cy="322.7" r="22" style="fill:#fff;stroke:#01423f;stroke-width:12px;stroke-linecap:butt;stroke-linejoin:miter;"/><circle cx="639.2" cy="322.6" r="22" style="fill:#fff;stroke:#01423f;stroke-width:12px;stroke-linecap:butt;stroke-linejoin:miter;"/><circle cx="773.5" cy="235.1" r="22" style="fill:#fff;stroke:#01423f;stroke-width:12px;stroke-linecap:butt;stroke-linejoin:miter;"/><circle cx="910.5" cy="335.6" r="22" style="fill:#fff;stroke:#01423f;stroke-width:12px;stroke-linecap:butt;stroke-linejoin:miter;"/><circle cx="1050" cy="438.2" r="22" style="fill:#fff;stroke:#01423f;stroke-width:12px;stroke-linecap:butt;stroke-linejoin:miter;"/><circle cx="1173.8" cy="228.4" r="22" style="fill:#fff;stroke:#01423f;stroke-width:12px;stroke-linecap:butt;stroke-linejoin:miter;"/><circle cx="1375.6" cy="228.4" r="22" style="fill:#fff;stroke:#01423f;stroke-width:12px;stroke-linecap:butt;stroke-linejoin:miter;"/><circle cx="1551.53" cy="328.732" r="22" style="fill:#fff;stroke:#01423f;stroke-width:12px;stroke-linecap:butt;stroke-linejoin:miter;"/><circle cx="1698.5" cy="428.9" r="22" style="fill:#fff;stroke:#01423f;stroke-width:12px;stroke-linecap:butt;stroke-linejoin:miter;"/></g></svg>