<svg xmlns="http://www.w3.org/2000/svg" viewBox="-20.00 -20.00 221.80 352.00" width="221.80" height="352.00">
  <rect x="-20.00" y="-20.00" width="221.80" height="352.00" fill="#ffffff"/>
  <rect x="10.50" y="0.00" width="160.81" height="120.16" rx="0.00" ry="0.00" fill="#ffffff" stroke="#000000" stroke-width="1.50"/>
  <text x="90.90" y="23.36" font-family="DejaVu Sans" font-size="16.00" text-anchor="middle" fill="#000000">Customer</text>
  <polyline points="10.50,35.20 171.30,35.20" fill="none" stroke="#000000" stroke-width="1.50"/>
  <text x="30.50" y="54.26" font-family="DejaVu Sans" font-size="13.60" text-anchor="start" fill="#000000">[PK] id: Int</text>
  <text x="30.50" y="82.58" font-family="DejaVu Sans" font-size="13.60" text-anchor="start" fill="#000000">name: String</text>
  <text x="30.50" y="110.90" font-family="DejaVu Sans" font-size="13.60" text-anchor="start" fill="#000000">[UK] email: String</text>
  <rect x="0.00" y="220.16" width="181.80" height="91.84" rx="0.00" ry="0.00" fill="#ffffff" stroke="#000000" stroke-width="1.50"/>
  <text x="90.90" y="243.52" font-family="DejaVu Sans" font-size="16.00" text-anchor="middle" fill="#000000">Order</text>
  <polyline points="0.00,255.36 181.80,255.36" fill="none" stroke="#000000" stroke-width="1.50"/>
  <text x="20.00" y="274.42" font-family="DejaVu Sans" font-size="13.60" text-anchor="start" fill="#000000">[PK] id: Int</text>
  <text x="20.00" y="302.74" font-family="DejaVu Sans" font-size="13.60" text-anchor="start" fill="#000000">[FK] customer_id: Int</text>
  <polyline points="96.90,130.16 84.90,130.16" fill="none" stroke="#000000" stroke-width="1.50"/>
  <polyline points="90.90,220.16 84.90,208.16" fill="none" stroke="#000000" stroke-width="1.50"/>
  <polyline points="90.90,220.16 96.90,208.16" fill="none" stroke="#000000" stroke-width="1.50"/>
  <polyline points="95.90,201.16 95.65,202.71 94.94,204.10 93.84,205.21 92.44,205.92 90.90,206.16 89.35,205.92 87.96,205.21 86.85,204.10 86.14,202.71 85.90,201.16 86.14,199.61 86.85,198.22 87.96,197.11 89.35,196.40 90.90,196.16 92.44,196.40 93.84,197.11 94.94,198.22 95.65,199.61 95.90,201.16" fill="none" stroke="#000000" stroke-width="1.50"/>
  <polyline points="90.90,130.16 90.90,196.16" fill="none" stroke="#000000" stroke-width="1.50"/>
  <text x="90.90" y="166.16" font-family="DejaVu Sans" font-size="13.60" text-anchor="middle" fill="#000000">places</text>
</svg>
