<svg xmlns="http://www.w3.org/2000/svg" viewBox="-20.00 -20.00 399.19 288.00" width="399.19" height="288.00">
  <rect x="-20.00" y="-20.00" width="399.19" height="288.00" fill="#ffffff"/>
  <rect x="0.00" y="0.00" width="152.00" height="39.20" rx="4.00" ry="4.00" fill="#ffffff" stroke="#000000" stroke-width="1.50"/>
  <text x="76.00" y="25.20" font-family="DejaVu Sans" font-size="16.00" text-anchor="middle" fill="#000000">ウェブブラウザ</text>
  <polyline points="76.00,39.20 76.00,248.00" fill="none" stroke="#000000" stroke-width="1.50" stroke-dasharray="6 4"/>
  <rect x="245.88" y="0.00" width="113.31" height="39.20" rx="4.00" ry="4.00" fill="#ffffff" stroke="#000000" stroke-width="1.50"/>
  <text x="302.54" y="25.20" font-family="DejaVu Sans" font-size="16.00" text-anchor="middle" fill="#000000">APIサーバ</text>
  <polyline points="302.54,39.20 302.54,248.00" fill="none" stroke="#000000" stroke-width="1.50" stroke-dasharray="6 4"/>
  <polyline points="76.00,80.00 292.54,80.00" fill="none" stroke="#000000" stroke-width="1.50"/>
  <polygon points="302.54,80.00 292.54,75.00 292.54,85.00" fill="#000000" stroke="none"/>
  <text x="189.27" y="76.00" font-family="DejaVu Sans" font-size="13.60" text-anchor="middle" fill="#000000">POST /login</text>
  <polyline points="302.54,128.00 86.00,128.00" fill="none" stroke="#000000" stroke-width="1.50" stroke-dasharray="6 4"/>
  <polygon points="76.00,128.00 86.00,123.00 86.00,133.00" fill="#000000" stroke="none"/>
  <text x="189.27" y="124.00" font-family="DejaVu Sans" font-size="13.60" text-anchor="middle" fill="#000000">200 OK</text>
  <polyline points="76.00,176.00 106.00,176.00 106.00,200.00 86.00,200.00" fill="none" stroke="#000000" stroke-width="1.50"/>
  <polygon points="76.00,200.00 86.00,195.00 86.00,205.00" fill="#000000" stroke="none"/>
  <text x="110.00" y="180.76" font-family="DejaVu Sans" font-size="13.60" text-anchor="start" fill="#000000">セッション保存</text>
</svg>
