<svg xmlns="http://www.w3.org/2000/svg" viewBox="-20.00 -20.00 287.99 720.00" width="287.99" height="720.00">
  <rect x="-20.00" y="-20.00" width="287.99" height="720.00" fill="#ffffff"/>
  <rect x="0.00" y="0.00" width="50.95" height="39.20" rx="4.00" ry="4.00" fill="#ffffff" stroke="#000000" stroke-width="1.50"/>
  <text x="25.47" y="25.20" font-family="DejaVu Sans" font-size="16.00" text-anchor="middle" fill="#000000">A</text>
  <polyline points="25.47,39.20 25.47,680.00" fill="none" stroke="#000000" stroke-width="1.50" stroke-dasharray="6 4"/>
  <rect x="130.95" y="0.00" width="50.98" height="39.20" rx="4.00" ry="4.00" fill="#ffffff" stroke="#000000" stroke-width="1.50"/>
  <text x="156.43" y="25.20" font-family="DejaVu Sans" font-size="16.00" text-anchor="middle" fill="#000000">B</text>
  <polyline points="156.43,39.20 156.43,680.00" fill="none" stroke="#000000" stroke-width="1.50" stroke-dasharray="6 4"/>
  <rect x="151.43" y="128.00" width="10.00" height="96.00" rx="0.00" ry="0.00" fill="#ffffff" stroke="#000000" stroke-width="1.50"/>
  <rect x="151.43" y="320.00" width="10.00" height="288.00" rx="0.00" ry="0.00" fill="#ffffff" stroke="#000000" stroke-width="1.50"/>
  <rect x="154.43" y="416.00" width="10.00" height="96.00" rx="0.00" ry="0.00" fill="#ffffff" stroke="#000000" stroke-width="1.50"/>
  <polyline points="25.47,80.00 146.43,80.00" fill="none" stroke="#000000" stroke-width="1.50"/>
  <polygon points="156.43,80.00 146.43,75.00 146.43,85.00" fill="#000000" stroke="none"/>
  <text x="90.95" y="76.00" font-family="DejaVu Sans" font-size="13.60" text-anchor="middle" fill="#000000">request</text>
  <polyline points="151.43,176.00 35.47,176.00" fill="none" stroke="#000000" stroke-width="1.50" stroke-dasharray="6 4"/>
  <polygon points="25.47,176.00 35.47,171.00 35.47,181.00" fill="#000000" stroke="none"/>
  <text x="88.45" y="172.00" font-family="DejaVu Sans" font-size="13.60" text-anchor="middle" fill="#000000">response</text>
  <polyline points="25.47,272.00 146.43,272.00" fill="none" stroke="#000000" stroke-width="1.50"/>
  <polygon points="156.43,272.00 146.43,267.00 146.43,277.00" fill="#000000" stroke="none"/>
  <text x="90.95" y="268.00" font-family="DejaVu Sans" font-size="13.60" text-anchor="middle" fill="#000000">call</text>
  <polyline points="161.43,368.00 191.43,368.00 191.43,392.00 171.43,392.00" fill="none" stroke="#000000" stroke-width="1.50"/>
  <polygon points="161.43,392.00 171.43,387.00 171.43,397.00" fill="#000000" stroke="none"/>
  <text x="195.43" y="372.76" font-family="DejaVu Sans" font-size="13.60" text-anchor="start" fill="#000000">process</text>
  <polyline points="164.43,464.00 194.43,464.00 194.43,488.00 174.43,488.00" fill="none" stroke="#000000" stroke-width="1.50" stroke-dasharray="6 4"/>
  <polygon points="164.43,488.00 174.43,483.00 174.43,493.00" fill="#000000" stroke="none"/>
  <text x="198.43" y="468.76" font-family="DejaVu Sans" font-size="13.60" text-anchor="start" fill="#000000">done</text>
  <polyline points="151.43,560.00 35.47,560.00" fill="none" stroke="#000000" stroke-width="1.50" stroke-dasharray="6 4"/>
  <polygon points="25.47,560.00 35.47,555.00 35.47,565.00" fill="#000000" stroke="none"/>
  <text x="88.45" y="556.00" font-family="DejaVu Sans" font-size="13.60" text-anchor="middle" fill="#000000">reply</text>
</svg>
