<svg xmlns="http://www.w3.org/2000/svg" viewBox="-20.00 -20.00 288.67 336.00" width="288.67" height="336.00">
  <rect x="-20.00" y="-20.00" width="288.67" height="336.00" fill="#ffffff"/>
  <rect x="0.00" y="0.00" width="78.48" height="39.20" rx="4.00" ry="4.00" fill="#ffffff" stroke="#000000" stroke-width="1.50"/>
  <text x="39.24" y="25.20" font-family="DejaVu Sans" font-size="16.00" text-anchor="middle" fill="#000000">Alice</text>
  <polyline points="39.24,39.20 39.24,296.00" fill="none" stroke="#000000" stroke-width="1.50" stroke-dasharray="6 4"/>
  <rect x="158.48" y="0.00" width="70.92" height="39.20" rx="4.00" ry="4.00" fill="#ffffff" stroke="#000000" stroke-width="1.50"/>
  <text x="193.94" y="25.20" font-family="DejaVu Sans" font-size="16.00" text-anchor="middle" fill="#000000">Bob</text>
  <polyline points="193.94,39.20 193.94,296.00" fill="none" stroke="#000000" stroke-width="1.50" stroke-dasharray="6 4"/>
  <polyline points="39.24,80.00 183.94,80.00" fill="none" stroke="#000000" stroke-width="1.50"/>
  <polygon points="193.94,80.00 183.94,75.00 183.94,85.00" fill="#000000" stroke="none"/>
  <text x="116.59" y="76.00" font-family="DejaVu Sans" font-size="13.60" text-anchor="middle" fill="#000000">hello</text>
  <polyline points="193.94,128.00 49.24,128.00" fill="none" stroke="#000000" stroke-width="1.50" stroke-dasharray="6 4"/>
  <polygon points="39.24,128.00 49.24,123.00 49.24,133.00" fill="#000000" stroke="none"/>
  <text x="116.59" y="124.00" font-family="DejaVu Sans" font-size="13.60" text-anchor="middle" fill="#000000">reply</text>
  <polyline points="39.24,176.00 69.24,176.00 69.24,200.00 49.24,200.00" fill="none" stroke="#000000" stroke-width="1.50"/>
  <polygon points="39.24,200.00 49.24,195.00 49.24,205.00" fill="#000000" stroke="none"/>
  <text x="73.24" y="180.76" font-family="DejaVu Sans" font-size="13.60" text-anchor="start" fill="#000000">think</text>
  <polyline points="193.94,224.00 223.94,224.00 223.94,248.00 203.94,248.00" fill="none" stroke="#000000" stroke-width="1.50" stroke-dasharray="6 4"/>
  <polygon points="193.94,248.00 203.94,243.00 203.94,253.00" fill="#000000" stroke="none"/>
  <text x="227.94" y="228.76" font-family="DejaVu Sans" font-size="13.60" text-anchor="start" fill="#000000">log</text>
</svg>
