<svg xmlns="http://www.w3.org/2000/svg" viewBox="-20.00 -20.00 325.50 720.00" width="325.50" height="720.00">
  <rect x="-20.00" y="-20.00" width="325.50" height="720.00" fill="#ffffff"/>
  <rect x="0.00" y="0.00" width="78.48" height="39.20" rx="4.00" ry="4.00" fill="#ffffff" stroke="#000000" stroke-width="1.50"/>
  <text x="39.24" y="25.20" font-family="DejaVu Sans" font-size="16.00" text-anchor="middle" fill="#000000">Alice</text>
  <polyline points="39.24,39.20 39.24,680.00" fill="none" stroke="#000000" stroke-width="1.50" stroke-dasharray="6 4"/>
  <rect x="158.48" y="0.00" width="70.92" height="39.20" rx="4.00" ry="4.00" fill="#ffffff" stroke="#000000" stroke-width="1.50"/>
  <text x="193.94" y="25.20" font-family="DejaVu Sans" font-size="16.00" text-anchor="middle" fill="#000000">Bob</text>
  <polyline points="193.94,39.20 193.94,680.00" fill="none" stroke="#000000" stroke-width="1.50" stroke-dasharray="6 4"/>
  <rect x="188.94" y="128.00" width="10.00" height="96.00" rx="0.00" ry="0.00" fill="#ffffff" stroke="#000000" stroke-width="1.50"/>
  <rect x="188.94" y="320.00" width="10.00" height="288.00" rx="0.00" ry="0.00" fill="#ffffff" stroke="#000000" stroke-width="1.50"/>
  <rect x="191.94" y="416.00" width="10.00" height="96.00" rx="0.00" ry="0.00" fill="#ffffff" stroke="#000000" stroke-width="1.50"/>
  <polyline points="39.24,80.00 183.94,80.00" fill="none" stroke="#000000" stroke-width="1.50"/>
  <polygon points="193.94,80.00 183.94,75.00 183.94,85.00" fill="#000000" stroke="none"/>
  <text x="116.59" y="76.00" font-family="DejaVu Sans" font-size="13.60" text-anchor="middle" fill="#000000">request</text>
  <polyline points="188.94,176.00 49.24,176.00" fill="none" stroke="#000000" stroke-width="1.50" stroke-dasharray="6 4"/>
  <polygon points="39.24,176.00 49.24,171.00 49.24,181.00" fill="#000000" stroke="none"/>
  <text x="114.09" y="172.00" font-family="DejaVu Sans" font-size="13.60" text-anchor="middle" fill="#000000">response</text>
  <polyline points="39.24,272.00 183.94,272.00" fill="none" stroke="#000000" stroke-width="1.50"/>
  <polygon points="193.94,272.00 183.94,267.00 183.94,277.00" fill="#000000" stroke="none"/>
  <text x="116.59" y="268.00" font-family="DejaVu Sans" font-size="13.60" text-anchor="middle" fill="#000000">call</text>
  <polyline points="198.94,368.00 228.94,368.00 228.94,392.00 208.94,392.00" fill="none" stroke="#000000" stroke-width="1.50"/>
  <polygon points="198.94,392.00 208.94,387.00 208.94,397.00" fill="#000000" stroke="none"/>
  <text x="232.94" y="372.76" font-family="DejaVu Sans" font-size="13.60" text-anchor="start" fill="#000000">process</text>
  <polyline points="201.94,464.00 231.94,464.00 231.94,488.00 211.94,488.00" fill="none" stroke="#000000" stroke-width="1.50" stroke-dasharray="6 4"/>
  <polygon points="201.94,488.00 211.94,483.00 211.94,493.00" fill="#000000" stroke="none"/>
  <text x="235.94" y="468.76" font-family="DejaVu Sans" font-size="13.60" text-anchor="start" fill="#000000">done</text>
  <polyline points="188.94,560.00 49.24,560.00" fill="none" stroke="#000000" stroke-width="1.50" stroke-dasharray="6 4"/>
  <polygon points="39.24,560.00 49.24,555.00 49.24,565.00" fill="#000000" stroke="none"/>
  <text x="114.09" y="556.00" font-family="DejaVu Sans" font-size="13.60" text-anchor="middle" fill="#000000">reply</text>
</svg>
