<svg xmlns="http://www.w3.org/2000/svg" viewBox="-20.00 -20.00 179.20 496.80" width="179.20" height="496.80">
  <rect x="-20.00" y="-20.00" width="179.20" height="496.80" fill="#ffffff"/>
  <rect x="38.00" y="0.00" width="72.00" height="39.20" rx="4.00" ry="4.00" fill="#ffffff" stroke="#000000" stroke-width="1.50"/>
  <text x="74.00" y="25.20" font-family="DejaVu Sans" font-size="16.00" text-anchor="middle" fill="#000000">受付</text>
  <rect x="0.00" y="139.20" width="72.00" height="39.20" rx="4.00" ry="4.00" fill="#ffffff" stroke="#000000" stroke-width="1.50"/>
  <text x="36.00" y="164.40" font-family="DejaVu Sans" font-size="16.00" text-anchor="middle" fill="#000000">審査</text>
  <rect x="0.00" y="278.40" width="72.00" height="39.20" rx="4.00" ry="4.00" fill="#ffffff" stroke="#000000" stroke-width="1.50"/>
  <text x="36.00" y="303.60" font-family="DejaVu Sans" font-size="16.00" text-anchor="middle" fill="#000000">承認</text>
  <rect x="38.00" y="417.60" width="72.00" height="39.20" rx="4.00" ry="4.00" fill="#ffffff" stroke="#000000" stroke-width="1.50"/>
  <text x="74.00" y="442.80" font-family="DejaVu Sans" font-size="16.00" text-anchor="middle" fill="#000000">完了</text>
  <polyline points="68.65,39.20 43.98,129.55" fill="none" stroke="#000000" stroke-width="1.50"/>
  <polygon points="41.35,139.20 39.16,128.24 48.81,130.87" fill="#000000" stroke="none"/>
  <polyline points="36.00,178.40 36.00,268.40" fill="none" stroke="#000000" stroke-width="1.50"/>
  <polygon points="36.00,278.40 31.00,268.40 41.00,268.40" fill="#000000" stroke="none"/>
  <polyline points="41.35,317.60 66.02,407.95" fill="none" stroke="#000000" stroke-width="1.50"/>
  <polygon points="68.65,417.60 61.19,409.27 70.84,406.64" fill="#000000" stroke="none"/>
  <polyline points="79.35,39.20 112.00,158.80 112.00,298.00 81.98,407.95" fill="none" stroke="#000000" stroke-width="1.50"/>
  <polygon points="79.35,417.60 77.16,406.64 86.81,409.27" fill="#000000" stroke="none"/>
  <text x="112.00" y="224.40" font-family="DejaVu Sans" font-size="13.60" text-anchor="middle" fill="#000000">即時完了</text>
</svg>
