<svg xmlns="http://www.w3.org/2000/svg" viewBox="-20.00 -20.00 95.65 458.40" width="95.65" height="458.40">
  <rect x="-20.00" y="-20.00" width="95.65" height="458.40" fill="#ffffff"/>
  <rect x="4.69" y="116.00" width="50.95" height="39.20" rx="6.00" ry="6.00" fill="#ffffff" stroke="#000000" stroke-width="1.50"/>
  <text x="30.16" y="141.20" font-family="DejaVu Sans" font-size="16.00" text-anchor="middle" fill="#000000">A</text>
  <rect x="4.67" y="255.20" width="50.98" height="39.20" rx="6.00" ry="6.00" fill="#ffffff" stroke="#000000" stroke-width="1.50"/>
  <text x="30.16" y="280.40" font-family="DejaVu Sans" font-size="16.00" text-anchor="middle" fill="#000000">B</text>
  <polygon points="38.16,8.00 37.77,10.47 36.63,12.70 34.86,14.47 32.63,15.61 30.16,16.00 27.69,15.61 25.46,14.47 23.69,12.70 22.55,10.47 22.16,8.00 22.55,5.53 23.69,3.30 25.46,1.53 27.69,0.39 30.16,0.00 32.63,0.39 34.86,1.53 36.63,3.30 37.77,5.53 38.16,8.00" fill="#000000" stroke="none"/>
  <polygon points="36.16,406.40 35.87,408.25 35.01,409.93 33.69,411.25 32.01,412.11 30.16,412.40 28.31,412.11 26.63,411.25 25.31,409.93 24.45,408.25 24.16,406.40 24.45,404.55 25.31,402.87 26.63,401.55 28.31,400.69 30.16,400.40 32.01,400.69 33.69,401.55 35.01,402.87 35.87,404.55 36.16,406.40" fill="#000000" stroke="none"/>
  <polyline points="42.16,406.40 41.57,410.11 39.87,413.45 37.21,416.11 33.87,417.81 30.16,418.40 26.45,417.81 23.11,416.11 20.45,413.45 18.75,410.11 18.16,406.40 18.75,402.69 20.45,399.35 23.11,396.69 26.45,394.99 30.16,394.40 33.87,394.99 37.21,396.69 39.87,399.35 41.57,402.69 42.16,406.40" fill="none" stroke="#000000" stroke-width="1.50"/>
  <polyline points="30.16,16.00 30.16,106.00" fill="none" stroke="#000000" stroke-width="1.50"/>
  <polygon points="30.16,116.00 25.16,106.00 35.16,106.00" fill="#000000" stroke="none"/>
  <polyline points="32.13,155.20 37.16,205.20 33.13,245.25" fill="none" stroke="#000000" stroke-width="1.50"/>
  <polygon points="32.13,255.20 28.16,244.75 38.11,245.75" fill="#000000" stroke="none"/>
  <text x="44.16" y="201.20" font-family="DejaVu Sans" font-size="13.60" text-anchor="middle" fill="#000000">go</text>
  <polyline points="28.19,255.20 23.16,205.20 27.19,165.15" fill="none" stroke="#000000" stroke-width="1.50"/>
  <polygon points="28.19,155.20 32.16,165.65 22.21,164.65" fill="#000000" stroke="none"/>
  <text x="16.16" y="201.20" font-family="DejaVu Sans" font-size="13.60" text-anchor="middle" fill="#000000">back</text>
  <polyline points="30.16,294.40 30.16,384.40" fill="none" stroke="#000000" stroke-width="1.50"/>
  <polygon points="30.16,394.40 25.16,384.40 35.16,384.40" fill="#000000" stroke="none"/>
</svg>
