<svg xmlns="http://www.w3.org/2000/svg" viewBox="-20.00 -20.00 156.32 668.00" width="156.32" height="668.00">
  <rect x="-20.00" y="-20.00" width="156.32" height="668.00" fill="#ffffff"/>
  <g data-name="left">
    <polyline points="16.67,87.20 99.65,87.20 99.65,333.60 16.67,333.60 16.67,87.20" fill="none" stroke="#000000" stroke-width="1.50" stroke-dasharray="6 4"/>
    <text x="22.67" y="103.20" font-family="DejaVu Sans" font-size="16.00" text-anchor="start" fill="#000000">Left Side</text>
  </g>
  <g data-name="right">
    <polyline points="0.00,401.60 116.32,401.60 116.32,628.00 0.00,628.00 0.00,401.60" fill="none" stroke="#000000" stroke-width="1.50" stroke-dasharray="6 4"/>
  </g>
  <g data-name="inner">
    <polyline points="16.00,504.80 100.32,504.80 100.32,612.00 16.00,612.00 16.00,504.80" fill="none" stroke="#000000" stroke-width="1.50" stroke-dasharray="6 4"/>
    <text x="22.00" y="520.80" font-family="DejaVu Sans" font-size="16.00" text-anchor="start" fill="#000000">Inner</text>
  </g>
  <rect x="16.88" y="0.00" width="82.57" height="39.20" rx="4.00" ry="4.00" fill="#ffffff" stroke="#000000" stroke-width="1.50"/>
  <text x="58.16" y="25.20" font-family="DejaVu Sans" font-size="16.00" text-anchor="middle" fill="#000000">Entry</text>
  <rect x="32.69" y="139.20" width="50.95" height="39.20" rx="4.00" ry="4.00" fill="#ffffff" stroke="#000000" stroke-width="1.50"/>
  <text x="58.16" y="164.40" font-family="DejaVu Sans" font-size="16.00" text-anchor="middle" fill="#000000">A</text>
  <rect x="32.67" y="278.40" width="50.98" height="39.20" rx="4.00" ry="4.00" fill="#ffffff" stroke="#000000" stroke-width="1.50"/>
  <text x="58.16" y="303.60" font-family="DejaVu Sans" font-size="16.00" text-anchor="middle" fill="#000000">B</text>
  <rect x="32.57" y="417.60" width="51.17" height="39.20" rx="4.00" ry="4.00" fill="#ffffff" stroke="#000000" stroke-width="1.50"/>
  <text x="58.16" y="442.80" font-family="DejaVu Sans" font-size="16.00" text-anchor="middle" fill="#000000">C</text>
  <rect x="32.00" y="556.80" width="52.32" height="39.20" rx="4.00" ry="4.00" fill="#ffffff" stroke="#000000" stroke-width="1.50"/>
  <text x="58.16" y="582.00" font-family="DejaVu Sans" font-size="16.00" text-anchor="middle" fill="#000000">D</text>
  <polyline points="58.16,39.20 58.16,129.20" fill="none" stroke="#000000" stroke-width="1.50"/>
  <polygon points="58.16,139.20 53.16,129.20 63.16,129.20" fill="#000000" stroke="none"/>
  <polyline points="58.16,178.40 58.16,268.40" fill="none" stroke="#000000" stroke-width="1.50"/>
  <polygon points="58.16,278.40 53.16,268.40 63.16,268.40" fill="#000000" stroke="none"/>
  <polyline points="58.16,317.60 58.16,407.60" fill="none" stroke="#000000" stroke-width="1.50"/>
  <polygon points="58.16,417.60 53.16,407.60 63.16,407.60" fill="#000000" stroke="none"/>
  <polyline points="58.16,456.80 58.16,546.80" fill="none" stroke="#000000" stroke-width="1.50"/>
  <polygon points="58.16,556.80 53.16,546.80 63.16,546.80" fill="#000000" stroke="none"/>
</svg>
